<?xml version="1.0"?>
<svg xmlns="http://www.w3.org/2000/svg" height="512px" viewBox="-4 0 512 512" width="512px"><g><path d="m47.113281 312.105469h-15.050781c0-17.40625 14.160156-31.570313 31.570312-31.570313v15.054688c-9.109374 0-16.519531 7.410156-16.519531 16.515625zm0 0" data-original="#000000" class="active-path" data-old_color="#97c441" fill="#97c441"/><path d="m167.832031 280.535156h224.429688v15.054688h-224.429688zm0 0" data-original="#000000" class="active-path" data-old_color="#97c441" fill="#97c441"/><path d="m119.742188 200.382812h272.519531v15.050782h-272.519531zm0 0" data-original="#000000" class="active-path" data-old_color="#97c441" fill="#97c441"/><path d="m167.832031 120.230469h224.429688v15.050781h-224.429688zm0 0" data-original="#000000" class="active-path" data-old_color="#97c441" fill="#97c441"/><path d="m344.167969 88.167969h16.03125v15.054687h-16.03125zm0 0" data-original="#000000" class="active-path" data-old_color="#97c441" fill="#97c441"/><path d="m142.816406 54.84375c38.140625-26.03125 84.207032-39.789062 133.222656-39.789062 42.78125 0 84.035157 10.738281 119.304688 31.054687l7.515625-13.042969c-37.550781-21.632812-81.40625-33.066406-126.820313-33.066406-52.054687 0-101.058593 14.664062-141.707031 42.410156-39.699219 27.09375-68.070312 65.222656-79.890625 107.359375l14.492188 4.066407c10.867187-38.734376 37.105468-73.890626 73.882812-98.992188zm0 0" data-original="#000000" class="active-path" data-old_color="#97c441" fill="#97c441"/><path d="m420.648438 44.425781-8.679688 12.300781c48.910156 34.515626 76.964844 85.238282 76.964844 139.160157 0 99.710937-95.503906 180.832031-212.894532 180.832031-22.351562 0-44.273437-2.929688-65.164062-8.707031l-4.226562-1.167969-39.304688 39.304688v-54.707032l-3.976562-2.128906c-13.503907-7.222656-26.023438-15.683594-37.28125-25.140625.777343-3.992187 1.179687-8.03125 1.179687-12.066406 0-31.960938-23.660156-58.683594-54.722656-62.953125-6.234375-17.179688-9.398438-35.074219-9.398438-53.265625 0-8.960938.777344-17.964844 2.3125-26.761719l-14.828125-2.589844c-1.683594 9.652344-2.539062 19.527344-2.539062 29.351563 0 18.046875 2.84375 35.828125 8.445312 52.992187-31.757812 3.542969-56.535156 30.539063-56.535156 63.226563 0 19.460937 8.789062 36.898437 22.597656 48.582031h-22.597656v79.175781h40.078125v16.519531h15.050781v-16.519531h17.007813v57.082031h-17.007813v-16.519531h-15.050781v31.574219h47.113281v-72.136719h40.078125v-79.175781h-22.644531c6.839844-5.761719 12.496094-12.949219 16.429688-21.1875 9.671874 7.683594 20.128906 14.699219 31.234374 20.910156v82.082032l58.832032-58.832032c20.90625 5.382813 42.722656 8.109375 64.917968 8.109375 60.675782 0 117.765626-20.230469 160.757813-56.96875 43.328125-37.027343 67.1875-86.359375 67.1875-138.917969 0-58.878906-30.375-114.082031-83.335937-151.457031zm-308.433594 331.316407v49.066406h-97.160156v-49.066406zm-1.953125-50.085938c-5.933594 20.625-25.105469 35.03125-46.628907 35.03125-26.785156 0-48.578124-21.792969-48.578124-48.582031 0-26.785157 21.792968-48.578125 48.578124-48.578125.882813 0 1.789063 0 2.382813.085937l.636719.0625c25.546875 1.460938 45.5625 22.734375 45.5625 48.429688 0 4.53125-.65625 9.085937-1.953125 13.550781zm0 0" data-original="#000000" class="active-path" data-old_color="#97c441" fill="#97c441"/><path d="m31.574219 392.75h64.121093v15.050781h-64.121093zm0 0" data-original="#000000" class="active-path" data-old_color="#97c441" fill="#97c441"/><path d="m167.832031 240.457031h264.503907v15.054688h-264.503907zm0 0" data-original="#000000" class="active-path" data-old_color="#97c441" fill="#97c441"/><path d="m119.742188 160.304688h272.519531v15.054687h-272.519531zm0 0" data-original="#000000" class="active-path" data-old_color="#97c441" fill="#97c441"/><path d="m376.230469 88.167969h16.03125v15.054687h-16.03125zm0 0" data-original="#000000" class="active-path" data-old_color="#97c441" fill="#97c441"/><path d="m167.832031 88.167969h16.03125v15.054687h-16.03125zm0 0" data-original="#000000" class="active-path" data-old_color="#97c441" fill="#97c441"/></g> </svg>
